<svg width="32" height="32" viewBox="0 0 32 32" fill="none" xmlns="http://www.w3.org/2000/svg">
<rect width="32" height="32" rx="16" fill="#F2F3F5"/>
<path fill-rule="evenodd" clip-rule="evenodd" d="M10.167 11.0415C10.167 10.5583 10.5587 10.1665 11.042 10.1665H14.4763L14.6477 10.3408C14.9826 10.6814 15.4956 11.0587 16.0003 11.0587C16.5051 11.0587 17.018 10.6814 17.3529 10.3408L17.5244 10.1665H20.9587C21.4419 10.1665 21.8337 10.5583 21.8337 11.0415V16.1628C21.8337 16.6461 21.4419 17.0378 20.9587 17.0378H20.3753V20.6665C20.3753 21.1498 19.9836 21.5415 19.5003 21.5415H12.5003C12.0171 21.5415 11.6253 21.1498 11.6253 20.6665V17.0378H11.042C10.5587 17.0378 10.167 16.6461 10.167 16.1628V11.0415ZM11.3337 11.3332V15.8712H12.792V20.3748H19.2087V15.8712H20.667V11.3332H18.0037C17.5836 11.7159 16.8659 12.2253 16.0003 12.2253C15.1348 12.2253 14.4171 11.7159 13.997 11.3332H11.3337Z" fill="#4E5969"/>
</svg>
