<svg width="32" height="32" viewBox="0 0 32 32" fill="none" xmlns="http://www.w3.org/2000/svg">
<rect width="32" height="32" rx="16" fill="#F2F3F5"/>
<g clip-path="url(#clip0_97_23049)">
<path fill-rule="evenodd" clip-rule="evenodd" d="M18.2331 12.4584C16.6384 10.8637 14.053 10.8637 12.4584 12.4584C10.8637 14.053 10.8637 16.6384 12.4584 18.2331C14.053 19.8277 16.6384 19.8277 18.2331 18.2331C19.8277 16.6384 19.8277 14.053 18.2331 12.4584ZM11.6334 11.6334C13.6836 9.58314 17.0078 9.58314 19.058 11.6334C20.9688 13.5442 21.0988 16.5616 19.4478 18.6229L21.5329 20.7079L20.7079 21.5329L18.6229 19.4478C16.5616 21.0988 13.5442 20.9688 11.6334 19.058C9.58314 17.0078 9.58314 13.6836 11.6334 11.6334Z" fill="#4E5969"/>
</g>
<defs>
<clipPath id="clip0_97_23049">
<rect width="14" height="14" fill="white" transform="translate(9 9)"/>
</clipPath>
</defs>
</svg>
