<svg width="40" height="40" viewBox="0 0 40 40" fill="none" xmlns="http://www.w3.org/2000/svg">
<rect width="40" height="40" rx="18" fill="#F2F3F5"/>
<path fill-rule="evenodd" clip-rule="evenodd" d="M22.0413 15.6248L18.7862 15.6248L18.53 14.3438L17.386 14.5726L17.5965 15.6248L14.458 15.6248V16.7915L15.7692 16.7915C15.8468 17.0366 15.9619 17.367 16.1188 17.7361C16.3888 18.3715 16.7979 19.1582 17.3797 19.8177C16.8536 20.216 16.2677 20.5777 15.7535 20.8676C15.3985 21.0677 15.0851 21.2294 14.861 21.3408C14.749 21.3965 14.6597 21.4394 14.5989 21.4682C14.5686 21.4825 14.5454 21.4934 14.5301 21.5004L14.5132 21.5082L14.5086 21.5103C14.5086 21.5103 14.5087 21.5103 14.7497 22.0415C14.9908 22.5727 14.9917 22.5723 14.9917 22.5723L14.9934 22.5715L14.9992 22.5688L15.0203 22.5591C15.0385 22.5507 15.0646 22.5385 15.0981 22.5227C15.165 22.491 15.2611 22.4448 15.3803 22.3855C15.6186 22.2671 15.9503 22.0959 16.3264 21.8839C16.9087 21.5557 17.6161 21.1193 18.2497 20.6197C18.8833 21.1193 19.5907 21.5557 20.173 21.8839C20.5491 22.0959 20.8808 22.2671 21.1191 22.3855C21.1489 22.4003 21.1774 22.4144 21.2043 22.4276L20.9719 22.9832L20.0409 25.3262L21.1251 25.757L21.6743 24.3749H24.1583L24.7076 25.7571L25.7918 25.3261L24.8644 22.9928L23.4913 19.7083H22.3412L21.6552 21.3491C21.6496 21.3464 21.6441 21.3436 21.6384 21.3408C21.4144 21.2294 21.101 21.0677 20.7459 20.8676C20.2317 20.5777 19.6458 20.216 19.1197 19.8177C19.7015 19.1582 20.1106 18.3715 20.3806 17.7361C20.5375 17.367 20.6526 17.0366 20.7302 16.7915L22.0413 16.7915V15.6248ZM19.3069 17.2798C19.0586 17.8641 18.7084 18.519 18.2497 19.0405C17.7911 18.519 17.4408 17.8641 17.1925 17.2798C17.1183 17.1053 17.0546 16.9403 17.0008 16.7915L19.4986 16.7915C19.4448 16.9403 19.3811 17.1053 19.3069 17.2798ZM23.69 23.2083H22.1425L22.9162 21.3574L23.69 23.2083Z" fill="#4E5969"/>
</svg>
