<svg width="18" height="18" viewBox="0 0 18 18" fill="none" xmlns="http://www.w3.org/2000/svg">
<g clip-path="url(#clip0_115_13058)">
<path fill-rule="evenodd" clip-rule="evenodd" d="M6.83875 5.97336L5.03967 4.55601C5.88422 3.75751 6.97076 3.20232 8.2497 3.04531V5.0625H9.7497V3.0453C10.9781 3.19608 12.0284 3.7141 12.8575 4.46162L11.1261 6.00219L12.1232 7.12281L13.8378 5.59719C14.3684 6.38933 14.7204 7.30333 14.861 8.25H12.5621V9.75H14.9035C14.7819 11.0484 14.2391 12.3152 13.1976 13.3405L14.2499 14.4095C15.8071 12.8765 16.4768 10.9062 16.4275 8.98081C16.3811 7.16663 15.6973 5.38183 14.5098 4.00928C13.2108 2.50794 11.307 1.5 8.9997 1.5C6.61137 1.5 4.65676 2.57971 3.35687 4.167C1.90384 5.94129 1.25875 8.35975 1.71257 10.646C1.98315 12.0091 2.64421 13.3213 3.74952 14.4095L4.80185 13.3405C4.08563 12.6354 3.60716 11.8186 3.33774 10.958L6.08473 9.8862L5.53951 8.4888L3.0754 9.45022C3.01768 8.14052 3.38036 6.81798 4.08536 5.71377L5.91049 7.15164L6.83875 5.97336ZM6.3747 13.875C6.3747 12.6859 7.16539 11.6814 8.2497 11.3587V7.125H9.7497V11.3587C10.834 11.6814 11.6247 12.6859 11.6247 13.875C11.6247 15.3247 10.4494 16.5 8.9997 16.5C7.54995 16.5 6.3747 15.3247 6.3747 13.875ZM7.8747 13.875C7.8747 13.2537 8.37838 12.75 8.9997 12.75C9.62102 12.75 10.1247 13.2537 10.1247 13.875C10.1247 14.4963 9.62102 15 8.9997 15C8.37838 15 7.8747 14.4963 7.8747 13.875Z" fill="#165DFF"/>
</g>
<defs>
<clipPath id="clip0_115_13058">
<rect width="18" height="18" fill="white"/>
</clipPath>
</defs>
</svg>
