<svg width="32" height="32" viewBox="0 0 32 32" fill="none" xmlns="http://www.w3.org/2000/svg">
<rect width="32" height="32" rx="16" fill="#F2F3F5"/>
<path fill-rule="evenodd" clip-rule="evenodd" d="M13.9204 10.8073C14.0256 10.4286 14.3705 10.1665 14.7635 10.1665H17.2368C17.6299 10.1665 17.9747 10.4286 18.0799 10.8073L18.3781 11.8811L19.4573 11.6025C19.8378 11.5042 20.2372 11.6718 20.4338 12.0122L21.6704 14.1541C21.8669 14.4945 21.8124 14.9242 21.537 15.2047L20.7562 15.9998L21.537 16.795C21.8124 17.0755 21.8669 17.5051 21.6704 17.8455L20.4338 19.9875C20.2372 20.3279 19.8378 20.4954 19.4573 20.3972L18.3781 20.1186L18.0799 21.1924C17.9747 21.5711 17.6299 21.8332 17.2368 21.8332H14.7635C14.3705 21.8332 14.0256 21.5711 13.9204 21.1924L13.6222 20.1187L12.5433 20.3972C12.1627 20.4954 11.7633 20.3279 11.5668 19.9875L10.3301 17.8455C10.1336 17.5051 10.1882 17.0755 10.4636 16.795L11.2443 15.9998L10.4636 15.2047C10.1882 14.9242 10.1336 14.4945 10.3301 14.1541L11.5668 12.0122C11.7633 11.6718 12.1627 11.5042 12.5433 11.6025L13.6222 11.881L13.9204 10.8073ZM13.5455 19.8427L13.5456 19.8431ZM14.9852 11.3332L14.6696 12.4692C14.542 12.9288 14.0697 13.2015 13.6078 13.0822L12.4663 12.7875L11.4513 14.5455L12.2774 15.3868C12.6116 15.7272 12.6116 16.2725 12.2774 16.6129L11.4513 17.4542L12.4663 19.2121L13.6078 18.9174C14.0697 18.7982 14.542 19.0709 14.6696 19.5305L14.9852 20.6665H17.0151L17.3307 19.5304C17.4584 19.0708 17.9306 18.7981 18.3925 18.9174L19.5343 19.2121L20.5492 17.4542L19.7231 16.6129C19.3889 16.2725 19.3889 15.7272 19.7231 15.3868L20.5492 14.5455L19.5342 12.7875L18.3925 13.0823C17.9306 13.2015 17.4584 12.9289 17.3307 12.4693L17.0151 11.3332H14.9852ZM16.0002 14.8332C15.3558 14.8332 14.8335 15.3555 14.8335 15.9998C14.8335 16.6442 15.3558 17.1665 16.0002 17.1665C16.6445 17.1665 17.1668 16.6442 17.1668 15.9998C17.1668 15.3555 16.6445 14.8332 16.0002 14.8332ZM13.6668 15.9998C13.6668 14.7112 14.7115 13.6665 16.0002 13.6665C17.2888 13.6665 18.3335 14.7112 18.3335 15.9998C18.3335 17.2885 17.2888 18.3332 16.0002 18.3332C14.7115 18.3332 13.6668 17.2885 13.6668 15.9998Z" fill="#4E5969"/>
</svg>
