<svg width="55" height="63" viewBox="0 0 55 63" fill="none" xmlns="http://www.w3.org/2000/svg">
<path fill-rule="evenodd" clip-rule="evenodd" d="M8 58.332C8 46.4049 17.6689 36.736 29.596 36.736C34.4989 36.736 39.0099 38.365 42.6329 41.1132C44.393 42.4482 46.9021 42.1037 48.2372 40.3436C49.5722 38.5835 49.2277 36.0744 47.4676 34.7393C42.5019 30.9728 36.3045 28.736 29.596 28.736C13.2506 28.736 -8.89327e-07 41.9866 -1.74846e-07 58.332C-7.8281e-08 60.5412 1.79086 62.332 4 62.332C6.20914 62.332 8 60.5412 8 58.332ZM35.1185 13.5225C35.1185 16.5724 32.646 19.0449 29.596 19.0449C26.5461 19.0449 24.0736 16.5724 24.0736 13.5225C24.0736 10.4725 26.5461 8.00005 29.596 8.00005C32.646 8.00005 35.1185 10.4725 35.1185 13.5225ZM43.1185 13.5225C43.1185 20.9907 37.0643 27.0449 29.596 27.0449C22.1278 27.0449 16.0736 20.9907 16.0736 13.5225C16.0736 6.05425 22.1278 4.86238e-05 29.596 4.82974e-05C37.0643 4.79709e-05 43.1185 6.05425 43.1185 13.5225ZM35.8051 51.6944C37.3672 50.1324 39.8998 50.1324 41.4619 51.6944L41.9916 52.2241L48.1557 46.06C49.7178 44.4979 52.2504 44.4979 53.8125 46.06C55.3746 47.6221 55.3746 50.1548 53.8125 51.7169L44.8288 60.7005C44.8259 60.7035 44.823 60.7065 44.82 60.7094C43.2579 62.2715 40.7253 62.2715 39.1632 60.7094L35.8051 57.3513C34.243 55.7892 34.243 53.2565 35.8051 51.6944Z" fill="white"/>
</svg>
